<?xml version="1.0" encoding="UTF-8" standalone="no"?>
<!DOCTYPE svg PUBLIC "-//W3C//DTD SVG 1.1//EN" "http://www.w3.org/Graphics/SVG/1.1/DTD/svg11.dtd">
<svg width="100%" height="100%" viewBox="0 0 543 192" version="1.1" xmlns="http://www.w3.org/2000/svg" xmlns:xlink="http://www.w3.org/1999/xlink" xml:space="preserve" xmlns:serif="http://www.serif.com/" style="fill-rule:evenodd;clip-rule:evenodd;stroke-linejoin:round;stroke-miterlimit:2;">
    <g transform="matrix(1,0,0,1,-1646.5,-488.383)">
        <g transform="matrix(1,0,0,1,1351.23,0)">
            <g transform="matrix(0.813071,0,0,0.813071,215.215,103.569)">
                <g transform="matrix(0.674454,0,0,0.664931,114.778,186.122)">
                    <g transform="matrix(0.368024,0,0,0.368024,-303.203,306.559)">
                        <g transform="matrix(487.891,0,0,487.891,1770.87,707.775)">
                            <path d="M0.055,-0.447L0.055,-0.168C0.055,-0.125 0.063,-0.085 0.097,-0.049C0.15,0.008 0.232,0.015 0.299,0.015C0.36,0.015 0.437,0.009 0.492,-0.048C0.532,-0.089 0.535,-0.13 0.535,-0.168L0.535,-0.447L0.375,-0.447L0.375,-0.197C0.375,-0.177 0.372,-0.154 0.352,-0.134C0.334,-0.117 0.315,-0.115 0.295,-0.115C0.276,-0.115 0.255,-0.118 0.239,-0.132C0.218,-0.151 0.215,-0.179 0.215,-0.197L0.215,-0.447L0.055,-0.447Z" style="fill-rule:nonzero;"/>
                        </g>
                        <g transform="matrix(487.891,0,0,487.891,2058.72,707.775)">
                            <path d="M0.055,-0L0.215,-0L0.215,-0.221C0.215,-0.249 0.215,-0.292 0.243,-0.319C0.256,-0.332 0.27,-0.335 0.287,-0.335C0.303,-0.335 0.321,-0.332 0.335,-0.317C0.353,-0.298 0.356,-0.264 0.356,-0.221L0.356,-0L0.516,-0L0.516,-0.229C0.516,-0.251 0.518,-0.288 0.545,-0.314C0.559,-0.327 0.574,-0.332 0.592,-0.332C0.613,-0.332 0.625,-0.325 0.634,-0.317C0.652,-0.3 0.657,-0.268 0.657,-0.221L0.657,-0L0.817,-0L0.817,-0.291C0.817,-0.322 0.815,-0.375 0.775,-0.414C0.738,-0.45 0.684,-0.455 0.651,-0.455C0.621,-0.455 0.59,-0.451 0.558,-0.433C0.538,-0.422 0.515,-0.403 0.497,-0.371C0.486,-0.393 0.468,-0.418 0.435,-0.435C0.411,-0.448 0.381,-0.455 0.349,-0.455C0.305,-0.455 0.253,-0.439 0.215,-0.393L0.215,-0.447L0.055,-0.447L0.055,-0Z" style="fill-rule:nonzero;"/>
                        </g>
                        <g transform="matrix(487.891,0,0,487.891,2484.65,707.775)">
                            <path d="M0.529,-0.211C0.529,-0.261 0.521,-0.339 0.458,-0.399C0.405,-0.449 0.338,-0.46 0.286,-0.46C0.198,-0.46 0.14,-0.431 0.103,-0.395C0.064,-0.357 0.036,-0.297 0.036,-0.222C0.036,-0.137 0.073,-0.082 0.102,-0.053C0.157,0.002 0.228,0.015 0.287,0.015C0.384,0.015 0.436,-0.015 0.469,-0.047C0.502,-0.079 0.516,-0.114 0.523,-0.139L0.37,-0.139C0.363,-0.125 0.352,-0.115 0.342,-0.109C0.322,-0.098 0.294,-0.097 0.29,-0.097C0.254,-0.097 0.234,-0.109 0.224,-0.119C0.205,-0.138 0.196,-0.17 0.196,-0.194L0.529,-0.194L0.529,-0.211ZM0.201,-0.286C0.204,-0.306 0.214,-0.322 0.225,-0.334C0.242,-0.351 0.263,-0.358 0.29,-0.358C0.306,-0.358 0.335,-0.355 0.356,-0.334C0.368,-0.322 0.378,-0.303 0.382,-0.286L0.201,-0.286Z" style="fill-rule:nonzero;"/>
                        </g>
                        <g transform="matrix(487.891,0,0,487.891,2760.8,707.775)">
                            <path d="M0.055,-0L0.215,-0L0.215,-0.221C0.215,-0.249 0.215,-0.292 0.243,-0.319C0.256,-0.332 0.27,-0.335 0.287,-0.335C0.303,-0.335 0.321,-0.332 0.335,-0.317C0.353,-0.298 0.356,-0.264 0.356,-0.221L0.356,-0L0.516,-0L0.516,-0.229C0.516,-0.251 0.518,-0.288 0.545,-0.314C0.559,-0.327 0.574,-0.332 0.592,-0.332C0.613,-0.332 0.625,-0.325 0.634,-0.317C0.652,-0.3 0.657,-0.268 0.657,-0.221L0.657,-0L0.817,-0L0.817,-0.291C0.817,-0.322 0.815,-0.375 0.775,-0.414C0.738,-0.45 0.684,-0.455 0.651,-0.455C0.621,-0.455 0.59,-0.451 0.558,-0.433C0.538,-0.422 0.515,-0.403 0.497,-0.371C0.486,-0.393 0.468,-0.418 0.435,-0.435C0.411,-0.448 0.381,-0.455 0.349,-0.455C0.305,-0.455 0.253,-0.439 0.215,-0.393L0.215,-0.447L0.055,-0.447L0.055,-0Z" style="fill-rule:nonzero;"/>
                        </g>
                        <g transform="matrix(487.891,0,0,487.891,3186.73,707.775)">
                            <path d="M0.529,-0.211C0.529,-0.261 0.521,-0.339 0.458,-0.399C0.405,-0.449 0.338,-0.46 0.286,-0.46C0.198,-0.46 0.14,-0.431 0.103,-0.395C0.064,-0.357 0.036,-0.297 0.036,-0.222C0.036,-0.137 0.073,-0.082 0.102,-0.053C0.157,0.002 0.228,0.015 0.287,0.015C0.384,0.015 0.436,-0.015 0.469,-0.047C0.502,-0.079 0.516,-0.114 0.523,-0.139L0.37,-0.139C0.363,-0.125 0.352,-0.115 0.342,-0.109C0.322,-0.098 0.294,-0.097 0.29,-0.097C0.254,-0.097 0.234,-0.109 0.224,-0.119C0.205,-0.138 0.196,-0.17 0.196,-0.194L0.529,-0.194L0.529,-0.211ZM0.201,-0.286C0.204,-0.306 0.214,-0.322 0.225,-0.334C0.242,-0.351 0.263,-0.358 0.29,-0.358C0.306,-0.358 0.335,-0.355 0.356,-0.334C0.368,-0.322 0.378,-0.303 0.382,-0.286L0.201,-0.286Z" style="fill-rule:nonzero;"/>
                        </g>
                    </g>
                    <g transform="matrix(0.368024,0,0,0.368024,-303.203,484.82)">
                        <g transform="matrix(487.891,0,0,487.891,1770.87,707.775)">
                            <path d="M0.055,-0.447L0.055,-0.168C0.055,-0.125 0.063,-0.085 0.097,-0.049C0.15,0.008 0.232,0.015 0.299,0.015C0.36,0.015 0.437,0.009 0.492,-0.048C0.532,-0.089 0.535,-0.13 0.535,-0.168L0.535,-0.447L0.375,-0.447L0.375,-0.197C0.375,-0.177 0.372,-0.154 0.352,-0.134C0.334,-0.117 0.315,-0.115 0.295,-0.115C0.276,-0.115 0.255,-0.118 0.239,-0.132C0.218,-0.151 0.215,-0.179 0.215,-0.197L0.215,-0.447L0.055,-0.447Z" style="fill-rule:nonzero;"/>
                        </g>
                        <g transform="matrix(487.891,0,0,487.891,2058.72,707.775)">
                            <path d="M0.215,-0.043C0.265,0.009 0.325,0.015 0.354,0.015C0.399,0.015 0.457,0.002 0.507,-0.047C0.55,-0.089 0.579,-0.149 0.579,-0.224C0.579,-0.301 0.548,-0.36 0.511,-0.397C0.475,-0.433 0.421,-0.462 0.352,-0.462C0.286,-0.462 0.243,-0.433 0.215,-0.398L0.215,-0.447L0.055,-0.447L0.055,0.229L0.215,0.229L0.215,-0.043ZM0.313,-0.326C0.341,-0.326 0.366,-0.315 0.384,-0.296C0.404,-0.276 0.415,-0.247 0.415,-0.222C0.415,-0.195 0.401,-0.168 0.384,-0.151C0.366,-0.132 0.341,-0.121 0.313,-0.121C0.286,-0.121 0.26,-0.132 0.241,-0.151C0.224,-0.168 0.21,-0.196 0.21,-0.222C0.21,-0.247 0.221,-0.276 0.241,-0.296C0.26,-0.315 0.286,-0.326 0.313,-0.326Z" style="fill-rule:nonzero;"/>
                        </g>
                        <g transform="matrix(487.891,0,0,487.891,2359.26,707.775)">
                            <path d="M0.306,-0.326C0.331,-0.326 0.359,-0.314 0.377,-0.297C0.397,-0.277 0.408,-0.248 0.408,-0.224C0.408,-0.198 0.397,-0.172 0.377,-0.153C0.358,-0.134 0.332,-0.123 0.306,-0.123C0.279,-0.123 0.253,-0.134 0.234,-0.153C0.216,-0.171 0.203,-0.197 0.203,-0.224C0.203,-0.25 0.214,-0.278 0.234,-0.297C0.252,-0.314 0.28,-0.326 0.306,-0.326ZM0.574,-0.224C0.574,-0.304 0.538,-0.356 0.505,-0.388C0.468,-0.423 0.404,-0.462 0.305,-0.462C0.208,-0.462 0.143,-0.424 0.106,-0.388C0.073,-0.356 0.037,-0.304 0.037,-0.224C0.037,-0.164 0.057,-0.107 0.106,-0.059C0.168,0.002 0.24,0.015 0.305,0.015C0.377,0.015 0.446,-0.001 0.505,-0.059C0.554,-0.107 0.574,-0.164 0.574,-0.224Z" style="fill-rule:nonzero;"/>
                        </g>
                        <g transform="matrix(487.891,0,0,487.891,2657.36,707.775)">
                            <path d="M0.347,-0.231L0.347,-0.284C0.393,-0.294 0.432,-0.318 0.459,-0.348C0.491,-0.384 0.507,-0.431 0.507,-0.474C0.507,-0.534 0.48,-0.583 0.444,-0.617C0.408,-0.651 0.351,-0.682 0.267,-0.682C0.183,-0.682 0.126,-0.65 0.093,-0.617C0.063,-0.587 0.036,-0.538 0.033,-0.475L0.209,-0.475C0.209,-0.495 0.216,-0.514 0.227,-0.525C0.236,-0.535 0.251,-0.542 0.27,-0.542C0.289,-0.542 0.307,-0.535 0.318,-0.523C0.33,-0.511 0.335,-0.492 0.335,-0.476C0.335,-0.457 0.327,-0.436 0.312,-0.421C0.288,-0.397 0.249,-0.388 0.218,-0.388C0.205,-0.388 0.195,-0.39 0.184,-0.393L0.184,-0.231L0.347,-0.231ZM0.27,0.015C0.296,0.015 0.322,0.005 0.343,-0.016C0.361,-0.034 0.373,-0.056 0.373,-0.089C0.373,-0.122 0.361,-0.144 0.344,-0.161C0.322,-0.183 0.295,-0.193 0.269,-0.193C0.247,-0.193 0.221,-0.186 0.197,-0.162C0.184,-0.149 0.166,-0.125 0.166,-0.089C0.166,-0.053 0.184,-0.029 0.197,-0.016C0.221,0.008 0.248,0.015 0.27,0.015L0.27,0.015Z" style="fill-rule:nonzero;"/>
                        </g>
                    </g>
                </g>
                <g transform="matrix(0.315789,0,0,0.315789,13.6777,404.106)">
                    <g transform="matrix(2.075,0,0,2.075,-3478.72,-525.878)">
                        <path d="M1951.09,716.926C1925.6,716.207 1903.68,712.72 1885.34,706.465C1864.61,699.398 1848.21,688.797 1836.14,674.662C1825.34,661.797 1817.6,646.273 1812.91,628.088C1808.23,609.903 1805.89,581.673 1805.89,543.398L1805.89,359.01L1951.09,359.01L1951.09,389.004L1971.09,389.004L1971.09,359.01L2116.3,359.01L2116.3,543.398C2116.3,581.673 2113.99,609.903 2109.39,628.088C2104.78,646.273 2097,661.797 2086.04,674.662C2074.13,688.797 2057.77,699.398 2036.97,706.465C2018.51,712.735 1996.55,716.224 1971.09,716.931L1971.09,588.969C1982.12,588.969 1991.09,580.001 1991.09,568.972L1991.09,542.122C2014.69,530.864 2031.08,506.834 2031.08,478.988C2031.08,440.395 1999.68,409.001 1961.09,409.001C1922.5,409.001 1891.1,440.395 1891.1,478.988C1891.1,506.834 1907.49,530.864 1931.1,542.122L1931.1,568.972C1931.1,580.001 1940.07,588.969 1951.09,588.969L1951.09,716.926ZM1841.11,468.99L1841.11,488.987L1871.11,488.987L1871.11,468.99L1841.11,468.99ZM2031.78,535.541L2017.64,549.679L2038.85,570.886L2052.99,556.748L2031.78,535.541ZM1890.4,535.541L1869.19,556.748L1883.33,570.886L1904.54,549.679L1890.4,535.541ZM2051.08,468.99L2051.08,488.987L2081.07,488.987L2081.07,468.99L2051.08,468.99ZM1883.33,387.091L1869.19,401.229L1890.4,422.436L1904.54,408.298L1883.33,387.091ZM2038.85,387.091L2017.64,408.298L2031.78,422.436L2052.99,401.229L2038.85,387.091Z"/>
                    </g>
                    <g transform="matrix(2.075,0,0,2.075,-3478.72,-525.878)">
                        <path d="M1951.09,716.926C1925.6,716.207 1903.68,712.72 1885.34,706.465C1864.61,699.398 1848.21,688.797 1836.14,674.662C1825.34,661.797 1817.6,646.273 1812.91,628.088C1808.23,609.903 1805.89,581.673 1805.89,543.398L1805.89,359.01L1951.09,359.01L1951.09,389.004L1971.09,389.004L1971.09,359.01L2116.3,359.01L2116.3,543.398C2116.3,581.673 2113.99,609.903 2109.39,628.088C2104.78,646.273 2097,661.797 2086.04,674.662C2074.13,688.797 2057.77,699.398 2036.97,706.465C2018.51,712.735 1996.55,716.224 1971.09,716.931L1971.09,588.969C1982.12,588.969 1991.09,580.001 1991.09,568.972L1991.09,542.122C2014.69,530.864 2031.08,506.834 2031.08,478.988C2031.08,440.395 1999.68,409.001 1961.09,409.001C1922.5,409.001 1891.1,440.395 1891.1,478.988C1891.1,506.834 1907.49,530.864 1931.1,542.122L1931.1,568.972C1931.1,580.001 1940.07,588.969 1951.09,588.969L1951.09,716.926ZM1841.11,468.99L1841.11,488.987L1871.11,488.987L1871.11,468.99L1841.11,468.99ZM2031.78,535.541L2017.64,549.679L2038.85,570.886L2052.99,556.748L2031.78,535.541ZM1890.4,535.541L1869.19,556.748L1883.33,570.886L1904.54,549.679L1890.4,535.541ZM2051.08,468.99L2051.08,488.987L2081.07,488.987L2081.07,468.99L2051.08,468.99ZM1883.33,387.091L1869.19,401.229L1890.4,422.436L1904.54,408.298L1883.33,387.091ZM2038.85,387.091L2017.64,408.298L2031.78,422.436L2052.99,401.229L2038.85,387.091Z"/>
                    </g>
                </g>
            </g>
        </g>
    </g>
</svg>
