<?xml version="1.0" standalone="no"?>
<!DOCTYPE svg PUBLIC "-//W3C//DTD SVG 20010904//EN"
 "http://www.w3.org/TR/2001/REC-SVG-20010904/DTD/svg10.dtd">
<svg version="1.0" xmlns="http://www.w3.org/2000/svg"
 width="657.000000pt" height="657.000000pt" viewBox="0 0 657.000000 657.000000"
 preserveAspectRatio="xMidYMid meet">
<metadata>
Created by potrace 1.14, written by Peter Selinger 2001-2017
</metadata>
<g transform="translate(0.000000,657.000000) scale(0.100000,-0.100000)"
fill="#000000" stroke="none">
<path d="M723 4463 c4 -1786 6 -1896 42 -2238 109 -1034 628 -1613 1625 -1815
127 -26 359 -56 495 -64 55 -4 130 -9 168 -12 l67 -6 0 1055 0 1054 -58 12
c-117 23 -225 117 -257 225 -12 38 -15 107 -15 295 l0 246 -56 29 c-189 99
-377 292 -479 492 -190 371 -163 812 70 1169 87 133 290 312 445 390 308 156
722 156 1030 0 155 -78 358 -257 445 -390 141 -215 202 -434 192 -690 -9 -246
-81 -454 -224 -645 -88 -118 -255 -262 -375 -325 l-58 -30 0 -246 c0 -188 -3
-257 -15 -295 -32 -108 -140 -202 -257 -225 l-58 -12 0 -1054 0 -1054 80 5
c44 3 117 8 163 11 578 39 1078 199 1410 452 326 248 560 642 652 1096 85 426
94 696 95 2755 l0 1592 -1200 0 -1200 0 0 -250 0 -250 -165 0 -165 0 0 250 0
250 -1201 0 -1200 0 4 -1777z m1455 1134 l172 -172 -118 -118 -117 -117 -175
175 -175 175 115 115 c63 63 117 115 120 115 3 0 83 -78 178 -173z m2512 58
l115 -115 -175 -175 -175 -175 -117 117 -118 118 172 172 c95 95 175 173 178
173 3 0 57 -52 120 -115z m-2892 -1397 l2 -168 -250 0 -250 0 0 163 c0 90 3
167 7 171 4 3 115 5 247 4 l241 -3 3 -167z m3470 0 l2 -168 -250 0 -250 0 0
163 c0 90 3 167 7 171 4 3 115 5 247 4 l241 -3 3 -167z m-3028 -1054 l115
-116 -180 -174 -180 -174 -112 112 c-62 62 -113 117 -113 123 0 13 332 345
345 345 6 0 62 -52 125 -116z m2392 -51 c93 -92 168 -172 168 -178 0 -6 -51
-61 -114 -124 l-113 -113 -179 175 -179 176 115 115 c63 64 119 116 125 116 5
0 85 -75 177 -167z"/>
</g>
</svg>
